<?xml version="1.0" encoding="UTF-8" standalone="no"?>
<svg
   xmlns:dc="http://purl.org/dc/elements/1.1/"
   xmlns:cc="http://creativecommons.org/ns#"
   xmlns:rdf="http://www.w3.org/1999/02/22-rdf-syntax-ns#"
   xmlns:svg="http://www.w3.org/2000/svg"
   xmlns="http://www.w3.org/2000/svg"
   xmlns:sodipodi="http://sodipodi.sourceforge.net/DTD/sodipodi-0.dtd"
   xmlns:inkscape="http://www.inkscape.org/namespaces/inkscape"
   inkscape:export-ydpi="2.6700001"
   inkscape:export-xdpi="2.6700001"
   inkscape:export-filename="C:\Users\hallm\Desktop\exclamation-triangle-solid.png"
   inkscape:version="1.0 (4035a4fb49, 2020-05-01)"
   height="576"
   width="576"
   sodipodi:docname="exclamation-triangle-solid.svg"
   id="svg4"
   version="1.1"
   viewBox="0 0 576 576"
   role="img"
   class="svg-inline--fa fa-exclamation-triangle fa-w-18"
   data-icon="exclamation-triangle"
   data-prefix="fas"
   focusable="false"
   aria-hidden="true">
  <metadata
     id="metadata10">
    <rdf:RDF>
      <cc:Work
         rdf:about="">
        <dc:format>image/svg+xml</dc:format>
        <dc:type
           rdf:resource="http://purl.org/dc/dcmitype/StillImage" />
        <dc:title></dc:title>
      </cc:Work>
    </rdf:RDF>
  </metadata>
  <defs
     id="defs8" />
  <sodipodi:namedview
     inkscape:current-layer="svg4"
     inkscape:window-maximized="0"
     inkscape:window-y="92"
     inkscape:window-x="272"
     inkscape:cy="256"
     inkscape:cx="288"
     inkscape:zoom="0.58695387"
     showgrid="false"
     id="namedview6"
     inkscape:window-height="826"
     inkscape:window-width="1436"
     inkscape:pageshadow="2"
     inkscape:pageopacity="0"
     guidetolerance="10"
     gridtolerance="10"
     objecttolerance="10"
     borderopacity="1"
     bordercolor="#666666"
     pagecolor="#ffffff" />
  <rect
     y="137.18433"
     x="218.07506"
     height="381.63135"
     width="139.70433"
     id="rect835"
     style="fill:#000000;stroke:none;stroke-width:5;stroke-miterlimit:4;stroke-dasharray:none;stroke-opacity:1" />
  <path
     sodipodi:nodetypes="cssccccsssssccssccssc"
     style="fill:#ffff00;stroke:#000000;stroke-width:5;stroke-miterlimit:4;stroke-dasharray:none;stroke-opacity:1"
     id="path2"
     d="m 569.517,471.9751 c 18.458,31.994 -4.711,71.987 -41.577,71.987 H 48.054 c -36.937,0 -59.999,-40.055 -41.577,-71.987 L 246.423,55.947098 c 18.467,-32.009 64.72,-31.951 83.154,0 z M 288,407.9621 c -25.405,0 -46,20.595 -46,46 0,25.405 20.595,46 46,46 25.405,0 46,-20.595 46,-46 0,-25.405 -20.595,-46 -46,-46 z m -43.673,-237.346 7.418,186 c 0.347,6.364 5.609,11.346 11.982,11.346 h 48.546 c 6.373,0 11.635,-4.982 11.982,-11.346 l 7.418,-186 c 0.375,-6.874 -5.098,-12.654 -11.982,-12.654 h -63.383 c -6.884,0 -12.356,5.78 -11.981,12.654 z"
     fill="currentColor" />
</svg>
