<?xml version="1.0" encoding="UTF-8" standalone="no"?>
<svg
   xmlns:dc="http://purl.org/dc/elements/1.1/"
   xmlns:cc="http://creativecommons.org/ns#"
   xmlns:rdf="http://www.w3.org/1999/02/22-rdf-syntax-ns#"
   xmlns:svg="http://www.w3.org/2000/svg"
   xmlns="http://www.w3.org/2000/svg"
   xmlns:sodipodi="http://sodipodi.sourceforge.net/DTD/sodipodi-0.dtd"
   xmlns:inkscape="http://www.inkscape.org/namespaces/inkscape"
   inkscape:export-ydpi="2.6700001"
   inkscape:export-xdpi="2.6700001"
   inkscape:export-filename="C:\Users\hallm\Desktop\inbox-solid.png"
   inkscape:version="1.0 (4035a4fb49, 2020-05-01)"
   height="576"
   width="576"
   sodipodi:docname="inbox-solid.svg"
   id="svg4"
   version="1.1"
   viewBox="0 0 576 576"
   role="img"
   class="svg-inline--fa fa-inbox fa-w-18"
   data-icon="inbox"
   data-prefix="fas"
   focusable="false"
   aria-hidden="true">
  <metadata
     id="metadata10">
    <rdf:RDF>
      <cc:Work
         rdf:about="">
        <dc:format>image/svg+xml</dc:format>
        <dc:type
           rdf:resource="http://purl.org/dc/dcmitype/StillImage" />
        <dc:title></dc:title>
      </cc:Work>
    </rdf:RDF>
  </metadata>
  <defs
     id="defs8" />
  <sodipodi:namedview
     inkscape:current-layer="svg4"
     inkscape:window-maximized="0"
     inkscape:window-y="0"
     inkscape:window-x="0"
     inkscape:cy="256"
     inkscape:cx="288"
     inkscape:zoom="0.58695387"
     showgrid="false"
     id="namedview6"
     inkscape:window-height="878"
     inkscape:window-width="1587"
     inkscape:pageshadow="2"
     inkscape:pageopacity="0"
     guidetolerance="10"
     gridtolerance="10"
     objecttolerance="10"
     borderopacity="1"
     bordercolor="#666666"
     pagecolor="#ffffff" />
  <path
     id="path2"
     d="M 567.938,275.908 462.25,117.374 A 48.003,48.003 0 0 0 422.311,96 H 153.689 a 48,48 0 0 0 -39.938,21.374 L 8.062,275.908 A 47.994,47.994 0 0 0 0,302.533 V 432 c 0,26.51 21.49,48 48,48 h 480 c 26.51,0 48,-21.49 48,-48 V 302.533 a 47.994,47.994 0 0 0 -8.062,-26.625 z M 162.252,160 h 251.497 l 85.333,128 H 376 l -32,64 H 232 L 200,288 H 76.918 Z"
     fill="currentColor" />
</svg>
