<?xml version="1.0" encoding="UTF-8" standalone="no"?>
<svg
   xmlns:dc="http://purl.org/dc/elements/1.1/"
   xmlns:cc="http://creativecommons.org/ns#"
   xmlns:rdf="http://www.w3.org/1999/02/22-rdf-syntax-ns#"
   xmlns:svg="http://www.w3.org/2000/svg"
   xmlns="http://www.w3.org/2000/svg"
   xmlns:sodipodi="http://sodipodi.sourceforge.net/DTD/sodipodi-0.dtd"
   xmlns:inkscape="http://www.inkscape.org/namespaces/inkscape"
   aria-hidden="true"
   focusable="false"
   data-prefix="fas"
   data-icon="redo-alt"
   class="svg-inline--fa fa-redo-alt fa-w-16"
   role="img"
   viewBox="0 0 512 512"
   version="1.1"
   id="svg4"
   sodipodi:docname="redo-alt-solid-mod.svg"
   inkscape:version="0.92.3 (2405546, 2018-03-11)">
  <metadata
     id="metadata10">
    <rdf:RDF>
      <cc:Work
         rdf:about="">
        <dc:format>image/svg+xml</dc:format>
        <dc:type
           rdf:resource="http://purl.org/dc/dcmitype/StillImage" />
        <dc:title></dc:title>
      </cc:Work>
    </rdf:RDF>
  </metadata>
  <defs
     id="defs8" />
  <sodipodi:namedview
     pagecolor="#ffffff"
     bordercolor="#666666"
     borderopacity="1"
     objecttolerance="10"
     gridtolerance="10"
     guidetolerance="10"
     inkscape:pageopacity="0"
     inkscape:pageshadow="2"
     inkscape:window-width="1101"
     inkscape:window-height="480"
     id="namedview6"
     showgrid="false"
     inkscape:zoom="0.4609375"
     inkscape:cx="-8.6779661"
     inkscape:cy="256"
     inkscape:window-x="1301"
     inkscape:window-y="241"
     inkscape:window-maximized="0"
     inkscape:current-layer="svg4" />
  <path
     d="m 256.455,8 c 66.269,0.119 126.437,26.233 170.859,68.685 L 463.029,40.97 C 478.149,25.851 504,36.559 504,57.941 V 192 c 0,13.255 -10.745,24 -24,24 H 345.941 c -21.382,0 -32.09,-25.851 -16.971,-40.971 l 41.75,-41.75 C 339.856,104.38 299.919,88.372 257.49,88.006 165.092,87.208 87.207,161.983 88.006,257.448 88.764,348.009 162.184,424 256,424 c 41.127,0 79.997,-14.678 110.629,-41.556 4.743,-4.161 44.44837,-36.45037 81.45275,-101.4131 l 48.33996,24.47556 C 524.035,313.37327 496.71373,374.72824 422.177,440.092 395.55793,471.13503 319.926,504 256,504 119.034,504 8.001,392.967 8,256.002 7.999,119.193 119.646,7.755 256.455,8 Z"
     id="path2"
     inkscape:connector-curvature="0"
     style="fill:currentColor"
     sodipodi:nodetypes="cccsssscccssccccssc" />
</svg>
