<?xml version="1.0" encoding="UTF-8" standalone="no"?>
<svg
   xmlns:dc="http://purl.org/dc/elements/1.1/"
   xmlns:cc="http://creativecommons.org/ns#"
   xmlns:rdf="http://www.w3.org/1999/02/22-rdf-syntax-ns#"
   xmlns:svg="http://www.w3.org/2000/svg"
   xmlns="http://www.w3.org/2000/svg"
   xmlns:sodipodi="http://sodipodi.sourceforge.net/DTD/sodipodi-0.dtd"
   xmlns:inkscape="http://www.inkscape.org/namespaces/inkscape"
   inkscape:export-ydpi="4.8000002"
   inkscape:export-xdpi="4.8000002"
   inkscape:export-filename="C:\Users\hallm\Desktop\user-plus-solid@2x.png"
   inkscape:version="1.0 (4035a4fb49, 2020-05-01)"
   height="640"
   width="640"
   sodipodi:docname="user-plus-solid.svg"
   id="svg4"
   version="1.1"
   viewBox="0 0 640 640"
   role="img"
   class="svg-inline--fa fa-user-plus fa-w-20"
   data-icon="user-plus"
   data-prefix="fas"
   focusable="false"
   aria-hidden="true">
  <metadata
     id="metadata10">
    <rdf:RDF>
      <cc:Work
         rdf:about="">
        <dc:format>image/svg+xml</dc:format>
        <dc:type
           rdf:resource="http://purl.org/dc/dcmitype/StillImage" />
        <dc:title></dc:title>
      </cc:Work>
    </rdf:RDF>
  </metadata>
  <defs
     id="defs8" />
  <sodipodi:namedview
     inkscape:current-layer="svg4"
     inkscape:window-maximized="0"
     inkscape:window-y="0"
     inkscape:window-x="0"
     inkscape:cy="256"
     inkscape:cx="320"
     inkscape:zoom="0.41503906"
     showgrid="false"
     id="namedview6"
     inkscape:window-height="926"
     inkscape:window-width="1734"
     inkscape:pageshadow="2"
     inkscape:pageopacity="0"
     guidetolerance="10"
     gridtolerance="10"
     objecttolerance="10"
     borderopacity="1"
     bordercolor="#666666"
     pagecolor="#ffffff" />
  <path
     id="path2"
     d="m 624,272 h -64 v -64 c 0,-8.8 -7.2,-16 -16,-16 h -32 c -8.8,0 -16,7.2 -16,16 v 64 h -64 c -8.8,0 -16,7.2 -16,16 v 32 c 0,8.8 7.2,16 16,16 h 64 v 64 c 0,8.8 7.2,16 16,16 h 32 c 8.8,0 16,-7.2 16,-16 v -64 h 64 c 8.8,0 16,-7.2 16,-16 v -32 c 0,-8.8 -7.2,-16 -16,-16 z M 224,320 C 294.7,320 352,262.7 352,192 352,121.3 294.7,64 224,64 153.3,64 96,121.3 96,192 c 0,70.7 57.3,128 128,128 z m 89.6,32 h -16.7 c -22.2,10.2 -46.9,16 -72.9,16 -26,0 -50.6,-5.8 -72.9,-16 H 134.4 C 60.2,352 0,412.2 0,486.4 V 528 c 0,26.5 21.5,48 48,48 h 352 c 26.5,0 48,-21.5 48,-48 V 486.4 C 448,412.2 387.8,352 313.6,352 Z"
     fill="currentColor" />
</svg>
